<mxfile host="65bd71144e">
    <diagram id="ExbnudLMfO_WVAHQ6NZ6" name="Page-1">
        <mxGraphModel dx="1104" dy="790" grid="1" gridSize="10" guides="1" tooltips="1" connect="1" arrows="1" fold="1" page="1" pageScale="1" pageWidth="850" pageHeight="1100" math="0" shadow="0">
            <root>
                <mxCell id="0"/>
                <mxCell id="1" parent="0"/>
                <mxCell id="27" value="" style="rounded=0;whiteSpace=wrap;html=1;labelBackgroundColor=none;fillColor=#cce5ff;strokeColor=#36393d;" vertex="1" parent="1">
                    <mxGeometry x="10" y="110" width="820" height="370" as="geometry"/>
                </mxCell>
                <mxCell id="14" value="" style="rounded=1;whiteSpace=wrap;html=1;fillColor=none;strokeColor=#000000;strokeWidth=2;fontColor=#000000;" vertex="1" parent="1">
                    <mxGeometry x="200" y="286" width="310" height="130" as="geometry"/>
                </mxCell>
                <mxCell id="16" style="edgeStyle=none;html=1;fontColor=#000000;strokeColor=#000000;" edge="1" parent="1" source="6" target="10">
                    <mxGeometry relative="1" as="geometry"/>
                </mxCell>
                <mxCell id="18" style="edgeStyle=none;html=1;entryX=0.55;entryY=0.95;entryDx=0;entryDy=0;entryPerimeter=0;fontColor=#000000;strokeColor=#000000;" edge="1" parent="1" source="6" target="12">
                    <mxGeometry relative="1" as="geometry">
                        <Array as="points">
                            <mxPoint x="150" y="290"/>
                        </Array>
                    </mxGeometry>
                </mxCell>
                <mxCell id="6" value="Extract Data" style="verticalLabelPosition=bottom;sketch=0;aspect=fixed;html=1;verticalAlign=top;strokeColor=none;align=center;outlineConnect=0;shape=mxgraph.citrix.process;fontColor=#000000;" vertex="1" parent="1">
                    <mxGeometry x="240" y="320" width="52" height="62" as="geometry"/>
                </mxCell>
                <mxCell id="25" style="edgeStyle=none;html=1;entryX=0;entryY=0.5;entryDx=0;entryDy=0;fontColor=#000000;strokeColor=#000000;" edge="1" parent="1" source="7" target="23">
                    <mxGeometry relative="1" as="geometry"/>
                </mxCell>
                <mxCell id="7" value="&lt;font&gt;PostGreSQ&lt;br&gt;Database&lt;/font&gt;" style="verticalLabelPosition=bottom;sketch=0;aspect=fixed;html=1;verticalAlign=top;strokeColor=none;align=center;outlineConnect=0;shape=mxgraph.citrix.database;fontColor=#000000;" vertex="1" parent="1">
                    <mxGeometry x="560" y="308.36" width="72.5" height="85.29" as="geometry"/>
                </mxCell>
                <mxCell id="15" style="edgeStyle=none;html=1;fontColor=#000000;strokeColor=#000000;" edge="1" parent="1" source="10" target="7">
                    <mxGeometry relative="1" as="geometry"/>
                </mxCell>
                <mxCell id="10" value="Transform" style="verticalLabelPosition=bottom;sketch=0;aspect=fixed;html=1;verticalAlign=top;strokeColor=none;align=center;outlineConnect=0;shape=mxgraph.citrix.process;fontColor=#000000;" vertex="1" parent="1">
                    <mxGeometry x="350" y="320" width="52" height="62" as="geometry"/>
                </mxCell>
                <mxCell id="17" style="edgeStyle=none;html=1;fontColor=#000000;strokeColor=#000000;" edge="1" parent="1" source="12" target="6">
                    <mxGeometry relative="1" as="geometry">
                        <Array as="points">
                            <mxPoint x="190" y="270"/>
                        </Array>
                    </mxGeometry>
                </mxCell>
                <mxCell id="12" value="API" style="ellipse;shape=cloud;whiteSpace=wrap;html=1;fillColor=none;strokeWidth=2;strokeColor=#000000;fontColor=#000000;" vertex="1" parent="1">
                    <mxGeometry x="10" y="150" width="120" height="80" as="geometry"/>
                </mxCell>
                <mxCell id="21" value="Load" style="text;html=1;strokeColor=none;fillColor=none;align=center;verticalAlign=middle;whiteSpace=wrap;rounded=0;fontColor=#000000;" vertex="1" parent="1">
                    <mxGeometry x="410" y="330" width="60" height="30" as="geometry"/>
                </mxCell>
                <mxCell id="23" value="Metabase(Visualization)" style="shape=image;verticalLabelPosition=bottom;labelBackgroundColor=none;verticalAlign=top;aspect=fixed;imageAspect=0;image=data:image/png,iVBORw0KGgoAAAANSUhEUgAAAGcAAAB6CAYAAACiCU28AAAAAXNSR0IArs4c6QAAAARnQU1BAACxjwv8YQUAAAAJcEhZcwAADsMAAA7DAcdvqGQAABk9SURBVHhe7Z35jxzHdceLO7O7M7MX71MiRS5JkRZ1UZYoyZYtO7EDB7Zhw4CR/OD/Jf9GECBIAgRBEARODARQEseBLFkyLEuiRB08JfEQb+29O8deeZ/XU1Rtb3V39SxoTzPzBWe3p7eOV+9VvXpHdXPTqsD00JXoa//uoQvRE04XoyecLkZPOF2MnnC6GD3hdDF6wuli9ITTxegJp4vRE04X44EJ3zAKO5BNfPhRcBRaOBC+Ij+aiytmoblqWsvRUMqlTWZoYJOpDvSZvgILqbDCgejW0qqZaayY+eaKWV5p3wQiEIRSG+wzW2t9pl+EVUQUVjiLskqmFlbMnBWMBwhoSAS0fbhkSgXcXQtpEDCdFlqrpr64migYgMpbaInKk08RUUjhsLU0RaWxerKwInJhdSGooqGYwhFO8wlRyBRBiCsF1N6F9XNy8bqAqwYUUjhs9H2BNjKlSlK2r4COTyGFA7MHSvxu30iDyKQqPk8RndLCrpxqf5+p9KcznT8NlsUhFXO6gLIp7p4zKIIZFqZX5bdvBSFAhDda7ZNVVkTRFNgJBVhsDfF1FuRDtACzGSCYAVkxNQ3hFHO/AYUPfEI9QsJctg5pn6wkVgt7U5EDoIUXzoOMwu45/x/QE04XoyecLkZPOF2MDRkEVCTauyKWEtcYRiWxkrCQ8hhJSoClImddi25ogyD5SjsgS11CTFiOndACOhYOQmktrZib08vmwq2mma6vmNFKyYzv6jd7NpdNtSxeeQBVmL+YwQ3xUyClLANSxxIht8ukAeqhpSm04OsAMp84qbQVAtpYkkaa4i8tCS3QjZ/EB3M8C/RKqvz61JL55M6imYMX4vwe2C68GCubSofp8o6Ew0CuTy6Zfzs9a964WDeNVhSS3ySjgrHPj1fND54aNge29ms+3wd6rcuApuurpt5a0e8KKY7HP1LpM2Mi7HKpfd8D6JhvrprZRiQY2wbM7Zd6o9LGiLTB7E0CE4P6c9LOYlu4YJPUIcIADTizSRONiXFlomV+/vaseedKQ9pqrxwpT//PHayY754YMuM7BoIE7SK3cHD4Pru7aP7hzWlz+mrTLLdVmgXdM3OffHjQ/MVzY+awrKT4DGZAZCdJM5M081GggxvsM1uGRUAe5kIHjJiRWQqD403QI0Ieq/WZzdWSl7msksmUVDd1cGa3SBtDwuh4E/T56Z2W+dvXp83Zm02NVrhjsfWf3l8xP3lmxBzfM+ilIwkpc8qPyfkV8/qFunn/WlMHF2cK3zkFw9/fuLhgvphbjv7ggFk+J7M1STCA+zCNwxsI0wV/gxH8zScYwD3RdCq8Bhcx0Mas1GeSJKW6KcNYOETiriqLlqz8X5yeE7XeUu0RHwvfGeMHnzfNq+cXzLS0kwe5hMNsvTm9ZN69Ur+n35MAUW99Vjc3RA+7zOWavzWWIuLTIHxRAaC+XKBCOT+gwm3fSwJyQW3F+6LNujB0af3cWQPqISDKuk1w/alokA+vN1XAaXTMy98v3V40F0WIWWN2kUs4COTu3JK5PZsxojauTS2bu/PLa5gLY/mOVRMCGMPMdgdljYiQJqjHRh9PU0ODttv+ngYCqtZguQe5vCQqDcFn0UG1CeHD1YlFqRbSY4RcwoEI1EnWqrFYlNFT3lUbEKqf9vcsaNnY6Pnq8ikLvvIwPLQJyvnOIKDuWN0hwLKdb4ZNaotcwmFfVxM1wQKLA0OgIuao/LsHNsQ8myIWYLw8dHA/FKQM1rUhIw9tgXLap1tDLoexBAMbwUjiBGp4r9Jn+3cQ+oXL24bLZsdIin3rYK/Y+FuHSuqzWDAYrK/QQ35ROnotc6nbL58QxlCPCRXP6fRLZdoJaEL7IaPqNsHl+I5+TfjFBe/DFuHDfnEtQvqzCGRRBFbCnrGSOSmmIQ5aGhjMVx+pqEPqMhEmDYp0WFFZhMK8msy2uH9AG/gg0JDVBjQPD65lLKBNEnGljHlGPcxh/Lc49m8pmyceGlQ/KA3DYoYf2TlgDomvEyJIi1zCAZtrJXUynzlQUQH4AOOw7V8Yr5ltMmPiYAWS12dGJxGLPDiMXhPGxp1I6tAHTKctXxvcQpXgzFZYZjFQB8EPycfnRwHKMEbaGPAUGhosmT89PmRO7KtoOx4ydGU9KQJ8QXjG6smDjiIEbPIXbrbUdsf5mlwQi0z2OmYpTt+x3QPmpSM18+ieAWWADxgJmKCYyhgYbKxQglBQg8zUiCnJqwOLjfqYuVh1ajfQhjRChECZjwAdteqC4lhy2ob8dv22kkiGvqkfrd72H2Kgznvi0715sW7OKS8i0x9ebBmCF5FgvrJ3UCdUHnQcW4MoHMyPbrTM9elFdcLofNdoWT3hnaOlRKZYwEwYrDEt+cJ3GMs+o4ZERn2A74VwWzI5uLbCGShHbYScb2Ms+EwqYJk0rBiYy6rRyZHRBN3iz52/1dRYI04vdfdu7jeHd/ab3cKTUCPKRcfCsaD2olCHB42KYaPNGowP1lRlnXRSH9AErQTIw4uo/mrHNNC3agHhB8JFIJ3SAjYsnB7uHxI0aQ/dgA2tHGqyV7BnsJQxT9HR7DWhaoE2luUHBgUqhY24E3VAO3YgVM2rltg32Hsi9So0yLQNzSlZYOTYNtjrIn8uJyEONmQQTNVXzLXJRXPti0UzXV9Wj/lhcbQekg9h9iyDAGOAqPGduSVzdxaLb1VN7N3ivGKC41FnMRmmMjGoa4PPkb6PGJPFG0aP1fjF/LLQsKTRcurhPO+UjZykWaZhI/0S4b4zI+MQI6mxuKLG0Y6RstkuDjvmdCdC6kg4MPXy3UXzH+/PmjcvNTQUDhNpCUKeP1Qxf/74sDkkjleSL8Rqu3S7ZX758bxGrzFBmXmY0PvEcf3uY0Pma4drZrMwKWlclCdRB2PcGB7lYQ6meJoHD70T80uaMPy1uAVEmTGpqY9P8tTDFfNnQseRXQOqEXxgcmCp/feHc+a3n9TNjZllNY6wFsmCMoaXjtbEcitnCjmO3MKBATD1b16bNB9db7XvrscJset/9uKoeVTs/DhRWDTvXW2Yf3171nxwvalMigO/4gdPDJuffHVUVuH6ZBlMISI8LT4WZrQPqBWYzOz3sYW6//S7GfXXWMFxICS8+p89P2qePlBVmuIgNf3Xr06aM+LrYI7HwdifO1g1P312RLOhedStp7t0kDL41dl587H4N2kgz/HaubqqKxcIgtD5q+fmRbh+wQAmwSsfzpt3Ljc0ne2CKtzT9HSCYABqblLUFasqDlTRq+cWzFufNryCAUyAy6Kyf/7unKqseCtMsn95a1rH4RMMQMu8c7lu/lPGgrObB7mEw+ZPso1Zn7Xe+PPvhajrU4s6SAsGxMrDeRW6UwFTf3NxQdPZbhssdo0KJDDEBX3MNpbXMXZygaRhQ/aapfYdP2Du57KvonrjY74ik+zM5y1VhWng76SzcVKz+OYil3DQpWx4E/NhM+Cm6F/KsllbkBW8Jfc5rROCqxNLqn7c5ByWHR9XYEmAGU3hv1ufe3jyJAIXU1aexbxMBE7VaASiDdo4d7OlqfQQhpNs4+zFfU22kTQiIhACTOSmCMZdIczEKI7VvpGBhggTFeZ2ybUv+ZUEysZJnhHr0ncuwAfGgdHhCgdgoVojJAuscqzCPMglnMgKCn8YaUAq1MRqcgO6mLlYPmnHlVwQEiLFQN8WbKp5km0ajmlfK+QLJjt+TIh46BsrMp4TwhJ06UoDvtugJzqehlylYepOsd13BSTboBmfZ+tweY2NT4SXZB1nukKAWT0m1pYbwETYfEIYAz8x510auNpFIlCswBB+8YjjI9vXHvGiXawvfd60fS8NHM96eEtZyoaUjpBLOAxwtzDr1KHqGkJ9IGTPgbq9m9f6KeRwDslAj4rvkLUAma30RQ7JbQNB4ceE+A0U8SXbMM9JlOFspoEZj4+CzxNf7Qe29ZvHAlIBjOPgjn7xl+7zuTVm8fPjNfPNo9VEorj/ojhflIMJLmAyK+rrh6vq3CXJmFWK83ZS/Iso9/4lqMKMRTWlCYjVNSL0xusD1CV5lpMHKjomXytMwP1by+Y7XxkyD23pb9/9EvT/vceHzLE9A4m8YNWe2DdovnFEHOoYL7JQ+itB+zoI6F2IQi2QfmVfxhpjRozIffLkEPInx4fNQVkhPs8aho4JoZtrUl++2/NjdkXAiJdFMN8R73yfqAJfLgQ6SDETi6MRtlotJT9wFsnljIgqIUrgW+XcYRxbh8rKQKw2jBfGQ384r4/LykIwzz5S1ROfcdA15bZJG3SBr4PBwx9oc8/mfnNKtAe8OLY3OVqShI5ja1gpU2LifiZO2m3xfTjXRefbhksqFNSFj6kW9Ir1clV8iM/ETCW2xcAQOMkpVtV23a/aFRIAHRxix/KCLwD1g9FCapnVkwYsMM7hYebekHFEsTWj9KO2+CDENDA5r00umU/vtrQtQlOo712yP6POiBXmFQzYUFQa6MqRAfKbmcS+5JmoidD6MjiESzsV4SarLUsocWAu25FgyeWhASBkzF0mCOOAmaxwrkPBOFg9jIPVipXJOPK04WLDwunh/iHn/OzhD4kNrRxqsozR00QNUAOcVok7jVmgHanOlaok1EAeTUBd9hz2HsBeo45uHhr4yA/LDgyOPOqIWjwO46o1aOD3H1StUaElm9512UDZSK9OtMTiEvNWBMMpTzbBvWP9anmlEQZT0dPoeawlSGHPIlEW7TtSv13WB+ozMW7OLGmAFQNldTU6nrVPLCX8k7R8DlCmSkMIl+A31xTHmGGy8ckSMmO4I4YAAVIMApJtmO8425zA4TWWPqs1Cx0JB9P34xtN81+E9K807sWMYGVF3AEcNsxgzmph6fjIYgNmEIT9G4vyXaettCGFYQwrENNcDw2267hAMKQv3r3cMK9frJsLt5kg0VCwlMa3D5hviC+GE5vkaFIaoUTPAUWTJGohcl6ZXFiPtX4iFO0/xIBgeD6HZN3vhRYCw6QjMATIhJ7cP2i+Lq7F+M5kXygJuYXDAM7eaJm/f2NaBeQDDD6+e8D85akx85g4YHEzEsYi0Kn59gNU7fsuaGO0skkdN2ZvHKwS8kqvnJnXhFe8DeqTKv/hUyPm+0+OqJceByuFfM+8TBAZ1jpQg8lBOwgp3gKcI/3xd29MaQoEEzoOVswzIqAfnxzV83yhMUWQyyCAGJJnJMo46ZkEykHsaxcWZLmvz5dgss41Iv3s4YmCNnisECEiTBesOp4We+183XzuEQygPqnvX5ye05OY8Tb4ikrkRa4+wQBuMxmTnmxj5f/76VmdrD7BAMbK45m/Orug7eRBLuGgetDvPFLI4LPwtixzZrXLGPwRhEIiLasJ6vEgLarDLUtGEeGQ7EoDNMKQ//l4XjdpF2zenD/gdxpoA8H4wv1kSc8IHb5MqwtSJJ+QbJNJEsI3i1zCYRZMiJ6fqoclY9gkJ2T2Mvss4BHfdY8JgJalklOc/jkKnDRbXZBk4zAKAnW7pF2MuxAq6J4J5eaQuDx/OzoQEtIG58kRZliPEXIJByI5T9y2WDPBk5Iw0E1SMahw8qLyTnX9viCMTlOJcaB+eE+AW575Elqfci4NFux7qNgQMBlIGob2CXIJB5t9eLDk3Vx9IBTDpu4m59ios0xTF1oeKtt1+E5OCCMjtBnMWhJdbnlICq1POfV7YjUIeoaGmeBBVowujlylsTx2iu3OeawQHNhWbgcvvxwUlwjZvZcGBqWRZwcwhcN6lYyHlgCR7oNiVqtJ7xTHApS5s+ZeEiB1UIbsluX6qJjH8XaTAM28NCN8SuUUDkSSKiAPkpWqRpAviI+BI+gSzwwknF8NmPn0h7+D3+OWZeXwwBLpiTTQL2bwt47VdEK4IEUdPXeTTgVtYE5TNg5yPTwYlaVJeLCKJ9sO3+9kG68r4ZAcJzKTBIRgYMipQzXN28TBYIdE3emTbe17cTAIcjEwJc4/VMlje3Eya+YhTf2uRySYkvo5R3eLfxErxFdmPU/PJakmyjDGMaHD52txnuL7TwynZkMZ41Pi57ws/GA8edBRhIDNjeNN716u6xFUTFrMTWJaqLxThyrmmUeqep0UtmBDZpMmQoBnrxu0fGAijBgW4RF6ia8aCzZockDvX23ocdrzN1tmthmdTyOygCr75qM1fTySI72+NijLWDAwMNmxRmkXwSIwTdgJQ9mzkhYY9Qlh4fsRrbglFiqhKLsFkGl98XDVHBJ6EFQedBz4ZBA2rjUhZi0mJcub2bprjAxk9mZJGza2Zs1aFY784KxxlsqBckIvt4UGEmUcPqQVMqAcDGFy8H/oZLFEY2tKRzRpKA/trBomRwYZWv+O8ODG5JIeysdCZVURU9srK5vwkW/lZaFj4VhQG+IwKRmQBitz0kEbLhFZzIiD+hFzI/MaRjBz87KDyUJ96uknZwPwgdVneYH6ju91ebBh4fRw/5CheHr4Y2JDKwc1QHwqem1WdMCDw4JqYeUQO+3Y0AjKKGuvioOaq6JKrP/NLpOnf0D3a9Sa/MirkVBpepJIGkKdcXwLFZtXPVp0JBxqQIQG82619MkDQhNsgjzizoFBTkNmOWjkPQgHEYqxwU0YwkbMnpGUy3HBkSraiHR9NBQEQxtYR1k6n7GQxSV5yJ6lTUgV6kED7WRNFupd+WJRD7vfnrUGgVhro2V9vgdfL81tSEJu4VAYK43nZsinYMJyCp9mcDCZLQjnZTFjowN7CW8JFMGw6mgL4cj4FBS1sw4zVsM0nvoUx3wnSUbE+N5LIgTIgxmLD8N5MxjsAyNnxWPx6YyXNtpNaHgH4WDO8xaRJCFD+/vXGubX5xb0mSXibYyN6ANWGjmcrx2pqi+UN3yTWziEx88IMf/42xlzUVaOrzbjYOX89NlR87Q4YPETl6wYHgWxr5H0AYEQHdDzzJ4VBCNJB+AnJT3GAYMQMAk73+ynb2ggYm0F64I+6ZsToajr+CRh7Ajmn383Y87KJPWNhcnF4UScYTLEeVR2LlHSNaF6nD5eBJckVgZKhpDXSJJTjxdriq1pV0wSaJtVgRARpgtq4VdFqeXong/M4CgNHmtAELXPivELBnCb1Rk9Qbe+0Jw4va98INpDVHvSWLjPU36/ubCgWdc8yCUcZiv7C88/Jg3IAnbwThicQ5e5bPzo9zTBWMBAzVTGOiNHwwr2MSwOivgecGLT5pUwWSF/qjFuX7KNyACp+sxkm/RzSfYjXvEcpyMNuYTDpstjelONsBlwm8ScqA03C8klEzmArwpmLok5d1CsCI0oBLRBmfiTbYBNnPkR0ITSTBtuf1xeEuHA+JA2eDrv6iQp9ZDSEXKrNQYZwhSAikYw7sqhbjh5ts/o2kLbCCVCITS0ryzyVKco/a1hrFwm7VU+wAeeCsyDXMJhg+UdY77wuQ8aOBQLpd9J/7CpUju+wScB40I3UacC93I92SZl48aWHl5sX2eBcvGcEiCOGLrBY/mF8s0iV2mizryyi6cAQnBYLDb9f6GdgXGNmZsr2SZl3dIcOuThrJAm6Loi5LpPxoEosBoxPgtUxerCVbDgEpeByRdCB28k4aGxPN5OLuFAxC5xqF46WtWZkAacMN5eofkWpyjXOGQwLItMfA3Oi8UFaf2pkFR1ZE6vTxnQJjOZqHMaoFdnvZj1cfB4CK/U5LHENOArkVM6cr/fyM5MIYn2wyeHlTk+IJjvnRg2p8YrGr6Pg9UQ5UmSmcsgcGCTcikwhDZYAUltsMLwcXx5FO5Qn0cSEaAPlGGMHO/1CREN8KOT+C/+ZBv7GvV51+m3j9cyhRhHR+EbTFuO+rx3tWn+9+yChi0wNcnnMJu+dWxInc+t+v8QrCcasJFi/eFDEGHAXAXKEGkHxun7N9fL9h4wgzXKgL8i5qw1i+kSweM4wpC0OBv94kuRbCPsYjd4+uUYLo8tRiotuh8H5XEvfvnRvCYeucYSZNw8lffieFUfweQaYeZBx4FPiMK+x0TkhQ8QROcMhscJlSkZtNAzZjLxMQROm+wDDCwkyQWogwVJ/8hX/pmyLDuYSzshaoQ2EJJalnJNFdQe9XVfymgDa3JGJghn+tzEI0+Sbx2KXo6UpT596Fg4FtRWBskFewEMDWGIC0sBv6iatz6gjXYzG25Dq8qPPE1QDyFZ14HVinD53QEpig0Lp4f7hxRt3MMfGw/EylF1JD9Qr8A6nZ2otm5CoYUD4WzkWFkEUq21xiaOb4J5m9dC6iYUVjhQTVSa+BaRa6w1XUHyN3Q11pE1p0Myqt2IwgrH+kj6H+FhQ3vACsKM5ZxykqPZzSikQcB0wsfCeU0SDEDN2YRaEVFI4din49IEY0ERMqZF1A+FFA4rgqhCCMMpgxCtJVckFHTlsPGHcztKkxVPOoUUDhs9fkwIKKY+T/S1UCimcITTUcKufSMFOKI8chhPthUBhRTOJmF0SLKNvyFEPXMW3SoUiikc+eD9k/PRY64eznMPwWyuRi8pKiIKHb7BpMbf4U0f/LZHsFB7CI//w4C8UlFjbIUPfEK8zaPYw4fRIRJRCwXcZ1wUXjgu3IEUWywRCrnnJAGB2M+DgAdKOA8aesLpYvSE08XoCaeL0RNOF6MnnC5GTzhdjJ5wuhbG/B/rD0uZ8wv3DQAAAABJRU5ErkJggg==;fontColor=#000000;" vertex="1" parent="1">
                    <mxGeometry x="700" y="295.91999999999996" width="93" height="110.16" as="geometry"/>
                </mxCell>
                <mxCell id="34" value="&lt;b&gt;&lt;font style=&quot;font-size: 16px&quot;&gt;&lt;u&gt;CoinCap ETL Project&lt;/u&gt;&lt;/font&gt;&lt;/b&gt;" style="text;html=1;strokeColor=none;fillColor=none;align=center;verticalAlign=middle;whiteSpace=wrap;rounded=0;labelBackgroundColor=none;fontColor=#000000;" vertex="1" parent="1">
                    <mxGeometry x="255" y="120" width="330" height="30" as="geometry"/>
                </mxCell>
                <mxCell id="35" value="&lt;font style=&quot;font-size: 15px&quot;&gt;&lt;b&gt;Job to run every 5 mins&lt;/b&gt;&lt;/font&gt;" style="text;html=1;strokeColor=none;fillColor=none;align=center;verticalAlign=middle;whiteSpace=wrap;rounded=0;labelBackgroundColor=none;fontSize=16;fontColor=#000000;" vertex="1" parent="1">
                    <mxGeometry x="250" y="286" width="210" height="30" as="geometry"/>
                </mxCell>
            </root>
        </mxGraphModel>
    </diagram>
</mxfile>